# xmcd
#
# Track frame offsets:
#	187
#	13455
#	28855
#	52695
#	64825
#	79062
#	99650
#	114517
#	133645
#	147405
#	165187
#	178390
#	196150
#	213667
#	227602
#	243670
#
# Disc length: 3511 seconds
#
# Revision: 1
# Processed by: cddbd v1.5.1PL0 Copyright (c) Steve Scherf et al.
# Submitted via: CDex 1.50Beta5
#
DISCID=e20db510
DTITLE=さまざまなアーティスト - 声優グラフティ
DYEAR=1900
DGENRE=
TTITLE0=島津冴子・高橋美紀/ウキウキ・サマービーチ
TTITLE1=三ツ矢雄二/食いMONOソング
TTITLE2=戸田恵子/青いやすらぎ
TTITLE3=千葉繁/アパプ・ブンブン
TTITLE4=小粥よう子/OSAKAキッド
TTITLE5=古谷徹/明日への願い
TTITLE6=冨永みーな/だいすきシンバ
TTITLE7=土井美加/傘の中
TTITLE8=小山茉美/ラブ・ラブ・ミンキーモモ
TTITLE9=水島裕/潮風のバルカローラ
TTITLE10=田中真弓/忍豚レゲェ
TTITLE11=矢尾一樹/YATTEYARUZE
TTITLE12=山本百合子/忘れられたメッセージ
TTITLE13=神谷明/ぼくは天才ッ チクタクボン
TTITLE14=坂本千夏/ワープボーイ
TTITLE15=川村万梨阿/Rouge
EXTD=
EXTT0=
EXTT1=
EXTT2=
EXTT3=
EXTT4=
EXTT5=
EXTT6=
EXTT7=
EXTT8=
EXTT9=
EXTT10=
EXTT11=
EXTT12=
EXTT13=
EXTT14=
EXTT15=
PLAYORDER=
